<svg width="738" height="149" viewBox="0 0 738 149" fill="none" xmlns="http://www.w3.org/2000/svg">
<g filter="url(#filter0_d)">
<path d="M22.4394 9.73522L53.7402 109.753V9.73522H104.48V132.316H89.4066V84.5803L90.8069 36.7603L59.4237 132.316H47.8919L16.6735 37.097L18.0738 84.5803V132.316H3V9.73522H22.4394Z" fill="url(#paint0_linear)"/>
<path d="M160.328 134C149.235 134 140.723 130.632 134.793 123.897C128.862 117.106 125.842 107.171 125.732 94.0938V83.0649C125.732 69.4822 128.615 58.8462 134.381 51.1568C140.202 43.4113 148.301 39.5385 158.68 39.5385C169.114 39.5385 176.911 42.9342 182.073 49.7255C187.235 56.5169 189.871 67.0968 189.981 81.4652V91.2314H140.229V93.3361C140.229 103.102 142.014 110.202 145.583 114.636C149.208 119.07 154.397 121.287 161.151 121.287C165.435 121.287 169.196 120.473 172.436 118.846C175.731 117.162 178.806 114.524 181.661 110.932L189.24 120.361C182.924 129.454 173.287 134 160.328 134ZM158.68 52.3354C152.64 52.3354 148.164 54.4683 145.254 58.7339C142.343 62.9434 140.696 69.5103 140.312 78.4344H175.401V76.4138C175.017 67.7703 173.479 61.5964 170.789 57.892C168.153 54.1876 164.117 52.3354 158.68 52.3354Z" fill="url(#paint1_linear)"/>
<path d="M221.282 41.2223L221.694 51.0726C227.35 43.3832 234.571 39.5385 243.357 39.5385C259.117 39.5385 267.107 50.2868 267.327 71.7834V132.316H252.83V72.4569C252.83 65.3288 251.649 60.2774 249.288 57.3027C246.981 54.2718 243.494 52.7564 238.827 52.7564C235.202 52.7564 231.935 53.9912 229.024 56.4608C226.169 58.9303 223.863 62.1576 222.105 66.1426V132.316H207.526V41.2223H221.282Z" fill="url(#paint2_linear)"/>
<path d="M332.564 108.996C332.564 105.796 331.383 103.046 329.022 100.745C326.661 98.4437 322.103 95.7496 315.349 92.6626C307.496 89.3511 301.95 86.5167 298.71 84.1594C295.525 81.802 293.136 79.136 291.544 76.1613C289.951 73.1304 289.155 69.5383 289.155 65.3849C289.155 57.9762 291.791 51.8303 297.062 46.9473C302.389 42.0081 309.171 39.5385 317.408 39.5385C326.084 39.5385 333.058 42.1204 338.33 47.284C343.602 52.4477 346.238 59.0707 346.238 67.1529H331.74C331.74 63.0557 330.395 59.5758 327.704 56.7133C325.013 53.7947 321.581 52.3354 317.408 52.3354C313.125 52.3354 309.747 53.486 307.276 55.7872C304.86 58.0323 303.652 61.0632 303.652 64.8798C303.652 67.9106 304.531 70.3521 306.288 72.2043C308.1 74.0565 312.411 76.498 319.22 79.5289C330.038 83.8506 337.397 88.0883 341.295 92.2417C345.194 96.3389 347.144 101.559 347.144 107.901C347.144 115.815 344.48 122.157 339.154 126.928C333.827 131.643 326.688 134 317.737 134C308.457 134 300.934 131.278 295.168 125.834C289.402 120.389 286.519 113.486 286.519 105.123H301.181C301.346 110.174 302.856 114.131 305.711 116.994C308.567 119.856 312.576 121.287 317.737 121.287C322.57 121.287 326.249 120.193 328.775 118.004C331.301 115.759 332.564 112.756 332.564 108.996Z" fill="url(#paint3_linear)"/>
<path d="M412.052 132.316C411.173 130.352 410.541 127.04 410.157 122.382C404.995 130.127 398.406 134 390.388 134C382.316 134 376.001 131.699 371.443 127.096C366.94 122.438 364.689 115.899 364.689 107.48C364.689 98.2192 367.764 90.8665 373.914 85.4222C380.064 79.9779 388.494 77.1996 399.202 77.0874H409.91V67.4055C409.91 61.9612 408.729 58.0884 406.368 55.7872C404.007 53.486 400.41 52.3354 395.578 52.3354C391.184 52.3354 387.615 53.6825 384.869 56.3766C382.124 59.0145 380.751 62.3821 380.751 66.4794H366.171C366.171 61.8209 367.517 57.3869 370.207 53.1773C372.898 48.9117 376.522 45.5722 381.08 43.1587C385.638 40.7453 390.718 39.5385 396.319 39.5385C405.435 39.5385 412.354 41.8678 417.076 46.5263C421.854 51.1287 424.297 57.8639 424.407 66.732V112.7C424.462 119.716 425.396 125.805 427.208 130.969V132.316H412.052ZM392.612 120.445C396.182 120.445 399.586 119.435 402.826 117.415C406.066 115.394 408.427 112.868 409.91 109.837V88.1163H401.673C394.754 88.2286 389.29 89.8282 385.281 92.9152C381.272 95.946 379.268 100.212 379.268 105.712C379.268 110.876 380.284 114.636 382.316 116.994C384.348 119.295 387.78 120.445 392.612 120.445Z" fill="url(#paint4_linear)"/>
<path d="M466.169 19.1645V41.2223H479.595V53.2615H466.169V109.753C466.169 113.345 466.746 116.067 467.899 117.92C469.052 119.772 471.029 120.698 473.829 120.698C475.751 120.698 477.701 120.361 479.678 119.688L479.513 132.316C476.218 133.439 472.841 134 469.381 134C463.615 134 459.222 131.895 456.202 127.686C453.182 123.476 451.672 117.527 451.672 109.837V53.2615H438.081V41.2223H451.672V19.1645H466.169Z" fill="url(#paint5_linear)"/>
<path d="M511.555 50.5675C517.101 43.2148 524.185 39.5385 532.807 39.5385C548.567 39.5385 556.557 50.2868 556.776 71.7834V132.316H542.279V72.4569C542.279 65.3288 541.099 60.2774 538.737 57.3027C536.431 54.2718 532.944 52.7564 528.276 52.7564C524.652 52.7564 521.385 53.9912 518.474 56.4608C515.619 58.9303 513.312 62.1576 511.555 66.1426V132.316H496.976C496.976 44.7352 496.976 27.8417 496.976 16.4704C496.976 14.9761 111.647 16.4704 111.647 16.4704V3.00001L511.555 3V50.5675Z" fill="url(#paint6_linear)"/>
<path d="M575.475 82.5597C575.475 69.3138 578.605 58.8462 584.865 51.1568C591.18 43.4113 599.499 39.5385 609.823 39.5385C620.147 39.5385 628.439 43.299 634.699 50.82C641.014 58.341 644.254 68.5842 644.419 81.5494V91.1472C644.419 104.337 641.289 114.777 635.028 122.466C628.768 130.155 620.421 134 609.988 134C599.664 134 591.372 130.268 585.112 122.803C578.907 115.338 575.694 105.235 575.475 92.4942V82.5597ZM590.054 91.1472C590.054 100.52 591.839 107.901 595.408 113.289C599.032 118.621 603.892 121.287 609.988 121.287C622.838 121.287 629.455 111.802 629.839 92.831V82.5597C629.839 73.2427 628.027 65.8901 624.403 60.5019C620.778 55.0576 615.918 52.3354 609.823 52.3354C603.837 52.3354 599.032 55.0576 595.408 60.5019C591.839 65.8901 590.054 73.2146 590.054 82.4755V91.1472Z" fill="url(#paint7_linear)"/>
<path d="M676.955 41.2223L677.367 51.0726C683.023 43.3832 690.244 39.5385 699.03 39.5385C714.79 39.5385 722.78 50.2868 723 71.7834V132.316H708.503V72.4569C708.503 65.3288 707.322 60.2774 704.961 57.3027C702.654 54.2718 699.167 52.7564 694.5 52.7564C690.876 52.7564 687.608 53.9912 684.698 56.4608C681.842 58.9303 679.536 62.1576 677.779 66.1426V132.316H663.199V41.2223H676.955Z" fill="url(#paint8_linear)"/>
</g>
<defs>
<filter id="filter0_d" x="0" y="0" width="738" height="149" filterUnits="userSpaceOnUse" color-interpolation-filters="sRGB">
<feFlood flood-opacity="0" result="BackgroundImageFix"/>
<feColorMatrix in="SourceAlpha" type="matrix" values="0 0 0 0 0 0 0 0 0 0 0 0 0 0 0 0 0 0 127 0"/>
<feOffset dx="6" dy="6"/>
<feGaussianBlur stdDeviation="4.5"/>
<feColorMatrix type="matrix" values="0 0 0 0 0 0 0 0 0 0 0 0 0 0 0 0 0 0 0.28 0"/>
<feBlend mode="normal" in2="BackgroundImageFix" result="effect1_dropShadow"/>
<feBlend mode="normal" in="SourceGraphic" in2="effect1_dropShadow" result="shape"/>
</filter>
<linearGradient id="paint0_linear" x1="1046.06" y1="74.3932" x2="18.0691" y2="84.7087" gradientUnits="userSpaceOnUse">
<stop offset="0.463374" stop-color="#842DAD"/>
<stop offset="1" stop-color="#1596F3"/>
</linearGradient>
<linearGradient id="paint1_linear" x1="1046.06" y1="74.3932" x2="18.0691" y2="84.7087" gradientUnits="userSpaceOnUse">
<stop offset="0.463374" stop-color="#842DAD"/>
<stop offset="1" stop-color="#1596F3"/>
</linearGradient>
<linearGradient id="paint2_linear" x1="1046.06" y1="74.3932" x2="18.0691" y2="84.7087" gradientUnits="userSpaceOnUse">
<stop offset="0.463374" stop-color="#842DAD"/>
<stop offset="1" stop-color="#1596F3"/>
</linearGradient>
<linearGradient id="paint3_linear" x1="1046.06" y1="74.3932" x2="18.0691" y2="84.7087" gradientUnits="userSpaceOnUse">
<stop offset="0.463374" stop-color="#842DAD"/>
<stop offset="1" stop-color="#1596F3"/>
</linearGradient>
<linearGradient id="paint4_linear" x1="1046.06" y1="74.3932" x2="18.0691" y2="84.7087" gradientUnits="userSpaceOnUse">
<stop offset="0.463374" stop-color="#842DAD"/>
<stop offset="1" stop-color="#1596F3"/>
</linearGradient>
<linearGradient id="paint5_linear" x1="1046.06" y1="74.3932" x2="18.0691" y2="84.7087" gradientUnits="userSpaceOnUse">
<stop offset="0.463374" stop-color="#842DAD"/>
<stop offset="1" stop-color="#1596F3"/>
</linearGradient>
<linearGradient id="paint6_linear" x1="1046.06" y1="74.3932" x2="18.0691" y2="84.7087" gradientUnits="userSpaceOnUse">
<stop offset="0.463374" stop-color="#842DAD"/>
<stop offset="1" stop-color="#1596F3"/>
</linearGradient>
<linearGradient id="paint7_linear" x1="1046.06" y1="74.3932" x2="18.0691" y2="84.7087" gradientUnits="userSpaceOnUse">
<stop offset="0.463374" stop-color="#842DAD"/>
<stop offset="1" stop-color="#1596F3"/>
</linearGradient>
<linearGradient id="paint8_linear" x1="1046.06" y1="74.3932" x2="18.0691" y2="84.7087" gradientUnits="userSpaceOnUse">
<stop offset="0.463374" stop-color="#842DAD"/>
<stop offset="1" stop-color="#1596F3"/>
</linearGradient>
</defs>
</svg>
