<svg width="188" height="184" viewBox="0 0 188 184" fill="none" xmlns="http://www.w3.org/2000/svg">
<g filter="url(#filter0_d)">
<path d="M48.3602 13.9512C55.5627 16.3121 86.7726 103.665 86.7726 103.665C86.7726 103.665 84.3727 47.0038 86.7726 13.9512C84.3727 9.22933 166 11.5902 166 11.5902C166 11.5902 172.5 164.5 164.5 166C167.5 169.59 132.388 167.41 132.388 167.41V89.5L95.6471 167.41H77.6409L41.1568 89.5V167.41C41.1568 167.41 7.54578 169.771 7.54451 165.049C7.52576 165.058 7.50705 165.065 7.48838 165.069C2.72607 166.195 0.371305 11.5902 7.5452 11.5902C8.28492 11.5902 9.00605 11.5948 9.7102 11.6035C9.78837 11.556 9.86721 11.5511 9.94672 11.5902C26.7532 11.5902 45.9589 11.5902 48.3602 13.9512Z" fill="url(#paint0_linear)"/>
</g>
<path d="M182.908 12.1797C182.908 13.1693 182.622 13.9277 182.049 14.4551C181.482 14.9824 180.678 15.2461 179.637 15.2461C178.595 15.2461 177.765 14.901 177.146 14.2109C176.535 13.5143 176.229 12.5801 176.229 11.4082V10.3047C176.229 9.17188 176.538 8.26042 177.156 7.57031C177.781 6.8737 178.608 6.52539 179.637 6.52539C180.698 6.52539 181.508 6.79557 182.068 7.33594C182.635 7.86979 182.918 8.62174 182.918 9.5918H181.395C181.395 8.9668 181.245 8.52083 180.945 8.25391C180.646 7.98047 180.21 7.84375 179.637 7.84375C179.038 7.84375 178.572 8.0651 178.24 8.50781C177.915 8.94401 177.749 9.52995 177.742 10.2656V11.4668C177.742 12.2285 177.908 12.8307 178.24 13.2734C178.572 13.7096 179.038 13.9277 179.637 13.9277C180.216 13.9277 180.652 13.7975 180.945 13.5371C181.238 13.2702 181.385 12.8177 181.385 12.1797H182.908ZM185.506 10.8809C185.506 9.80013 185.262 8.79753 184.773 7.87305C184.285 6.94206 183.595 6.19987 182.703 5.64648C181.811 5.08659 180.835 4.80664 179.773 4.80664C178.738 4.80664 177.775 5.07357 176.883 5.60742C175.997 6.14128 175.301 6.87695 174.793 7.81445C174.285 8.75195 174.031 9.77409 174.031 10.8809C174.031 11.9876 174.282 13.0098 174.783 13.9473C175.291 14.8848 175.988 15.627 176.873 16.1738C177.765 16.7142 178.732 16.9844 179.773 16.9844C180.815 16.9844 181.782 16.7077 182.674 16.1543C183.572 15.6009 184.269 14.8555 184.764 13.918C185.258 12.9805 185.506 11.9681 185.506 10.8809ZM172.84 10.8809C172.84 9.56576 173.143 8.34505 173.748 7.21875C174.36 6.09245 175.203 5.20703 176.277 4.5625C177.358 3.91146 178.523 3.58594 179.773 3.58594C181.023 3.58594 182.186 3.91146 183.26 4.5625C184.34 5.20703 185.184 6.09245 185.789 7.21875C186.401 8.34505 186.707 9.56576 186.707 10.8809C186.707 12.209 186.398 13.4395 185.779 14.5723C185.161 15.6986 184.314 16.584 183.24 17.2285C182.173 17.873 181.017 18.1953 179.773 18.1953C178.517 18.1953 177.352 17.8698 176.277 17.2188C175.21 16.5677 174.37 15.679 173.758 14.5527C173.146 13.4264 172.84 12.2025 172.84 10.8809Z" fill="#2A94EA"/>
<defs>
<filter id="filter0_d" x="0" y="8" width="183.491" height="175.066" filterUnits="userSpaceOnUse" color-interpolation-filters="sRGB">
<feFlood flood-opacity="0" result="BackgroundImageFix"/>
<feColorMatrix in="SourceAlpha" type="matrix" values="0 0 0 0 0 0 0 0 0 0 0 0 0 0 0 0 0 0 127 0"/>
<feOffset dx="6" dy="6"/>
<feGaussianBlur stdDeviation="4.5"/>
<feColorMatrix type="matrix" values="0 0 0 0 0 0 0 0 0 0 0 0 0 0 0 0 0 0 0.28 0"/>
<feBlend mode="normal" in2="BackgroundImageFix" result="effect1_dropShadow"/>
<feBlend mode="normal" in="SourceGraphic" in2="effect1_dropShadow" result="shape"/>
</filter>
<linearGradient id="paint0_linear" x1="91.5751" y1="157.966" x2="84.6095" y2="30.4645" gradientUnits="userSpaceOnUse">
<stop stop-color="#842DAD"/>
<stop offset="1" stop-color="#1596F3" stop-opacity="0.9"/>
</linearGradient>
</defs>
</svg>
